<svg width="46" height="46" viewBox="0 0 46 46" fill="none" xmlns="http://www.w3.org/2000/svg">
<path d="M13.6042 28.5833L15.6121 28.5833L16.3237 27.8971C13.8329 24.9996 12.3333 21.2379 12.3333 17.1458C12.3333 8.02125 19.7296 0.624998 28.8542 0.624999C37.9787 0.624999 45.375 8.02125 45.375 17.1458C45.375 26.2704 37.9787 33.6667 28.8542 33.6667C24.7621 33.6667 21.0004 32.1671 18.1029 29.6763L17.4167 30.3879L17.4167 32.3958L4.70833 45.0788L0.921246 41.2917L13.6042 28.5833V28.5833ZM28.8542 28.5833C35.1829 28.5833 40.2917 23.4746 40.2917 17.1458C40.2917 10.8171 35.1829 5.70833 28.8542 5.70833C22.5254 5.70833 17.4167 10.8171 17.4167 17.1458C17.4167 23.4746 22.5254 28.5833 28.8542 28.5833Z" fill="#EEEEEE"/>
</svg>
